<svg width="31" height="32" viewBox="0 0 31 32" fill="none" xmlns="http://www.w3.org/2000/svg">
<path fill-rule="evenodd" clip-rule="evenodd" d="M30.4151 22.4035C30.7643 23.2562 30.9884 24.164 30.999 25.0834C31.0144 25.9808 30.8437 26.8722 30.4971 27.7057C29.9587 28.9975 29.0233 30.1011 27.8153 30.8697C26.4495 31.7394 24.7635 32.1267 23.1362 31.9635C21.6379 31.8276 20.2134 31.2561 18.964 30.4669C17.6704 29.6565 16.5498 28.6225 15.5026 27.5389C14.3765 28.6991 13.167 29.8073 11.7529 30.6406C10.4852 31.3949 9.04051 31.9118 7.54221 31.9882C6.42049 32.0497 5.29928 31.8591 4.26771 31.4317C2.94812 30.8857 1.816 29.9404 1.06179 28.7673C0.186808 27.4169 -0.172532 25.7663 0.0780495 24.1937C0.213314 23.2623 0.572654 22.3799 0.969978 21.5267C1.92804 19.4786 2.92408 17.4471 3.92859 15.419C5.61376 12.03 7.35227 8.66563 9.14353 5.32716C9.21058 5.2026 9.27743 5.07791 9.3443 4.95319C9.64476 4.39276 9.94546 3.83189 10.2655 3.2812C10.6448 2.6321 11.0826 2.00477 11.6482 1.49026C12.6014 0.598204 13.898 0.0629688 15.2263 0H15.8204C17.1108 0.0771368 18.368 0.588496 19.3051 1.44618C19.8923 1.96882 20.3459 2.61163 20.7356 3.27936C21.0466 3.81622 21.3397 4.36227 21.6328 4.90829C21.7135 5.05847 21.7941 5.20866 21.8751 5.35865C24.5446 10.3346 27.096 15.3681 29.5273 20.4554C29.5704 20.5466 29.6138 20.6377 29.6571 20.7288C29.9203 21.2826 30.1837 21.8367 30.4151 22.4035ZM14.4377 23.0993C14.7798 23.5689 15.1228 24.0397 15.5094 24.4768C16.7099 22.9902 17.8199 21.406 18.5211 19.6387C18.8924 18.6863 19.1343 17.6607 19.0127 16.6395C18.9198 15.8713 18.5506 15.1238 17.9325 14.6182C16.7113 13.6052 14.7902 13.5149 13.4425 14.3501C12.8768 14.6961 12.4303 15.2198 12.1981 15.8243C11.9385 16.469 11.9185 17.1774 12.0019 17.8564C12.1161 18.7122 12.4087 19.5363 12.7733 20.3213C13.2181 21.2675 13.7712 22.1629 14.3795 23.0196C14.3989 23.0461 14.4183 23.0727 14.4377 23.0993ZM26.3749 29.4804C27.5076 28.8788 28.3733 27.8361 28.7334 26.6426C28.999 25.7689 28.9906 24.8234 28.7345 23.9478C28.5553 23.3408 28.2858 22.7648 28.0169 22.1901C27.9713 22.0926 27.9257 21.9952 27.8806 21.8977C25.8209 17.5673 23.6724 13.2764 21.4365 9.02736L21.3754 8.91149C20.6123 7.46398 19.8487 6.01544 19.0545 4.58308C18.6938 3.9366 18.2921 3.28802 17.6975 2.81392C17.0955 2.32827 16.3131 2.0499 15.5261 2.05882C14.7603 2.04534 14.0128 2.28456 13.4086 2.73652C12.8498 3.14424 12.4544 3.71437 12.1144 4.295C11.7704 4.89047 11.4461 5.4965 11.1218 6.10245C11.0536 6.22992 10.9854 6.35738 10.917 6.48474C8.27864 11.4083 5.75589 16.3882 3.35064 21.4207C3.28424 21.5624 3.21697 21.7039 3.14968 21.8454C2.86581 22.4424 2.58156 23.0401 2.36088 23.6616C2.0327 24.5906 1.97148 25.6147 2.24748 26.5631C2.60846 27.8542 3.56542 28.9775 4.81177 29.5738C5.87586 30.0907 7.12767 30.2151 8.28794 29.965C9.72312 29.667 10.99 28.8838 12.0972 27.9841C12.8113 27.398 13.4787 26.7613 14.0937 26.0793C12.7298 24.4629 11.4949 22.7202 10.6536 20.7949C10.0876 19.4773 9.71355 18.0474 9.84171 16.6141C9.92506 15.6189 10.2844 14.6376 10.9148 13.8395C11.631 12.9241 12.6763 12.2637 13.8207 11.9528C15.0342 11.6206 16.3566 11.6571 17.5461 12.0651C18.8195 12.4954 19.9303 13.3848 20.5503 14.5426C21.0239 15.4093 21.2146 16.4005 21.1859 17.3739C21.1351 18.908 20.5998 20.3862 19.8953 21.7505C19.0881 23.3084 18.0314 24.7336 16.9096 26.0958C17.6201 26.8444 18.3618 27.5706 19.1854 28.2061C20.306 29.073 21.5994 29.8073 23.0408 30.0227C24.1727 30.2043 25.3709 30.0196 26.3749 29.4804Z" fill="#FF5A5F"/>
</svg>
