<svg width="30" height="30" viewBox="0 0 30 30" fill="none" xmlns="http://www.w3.org/2000/svg">
<path d="M24.8381 12.8745L22.7125 15L21.7409 15.9717C20.4049 17.3077 18.2794 17.3684 17.004 16.0931L15.668 14.7571C15.5466 14.6356 15.5466 14.3927 15.668 14.2713L16.3968 13.5425L25.6275 4.4332C22.8947 1.70041 19.1296 0 15 0C6.68016 0 0 6.68016 0 15C0 23.3198 6.68016 30 15 30C23.3198 30 30 23.3198 30 15C30 12.8745 29.5749 10.8704 28.7854 9.04858L24.8381 12.8745ZM19.251 18.5223L16.6397 21.1336C15.3644 22.4089 13.3603 22.4089 12.085 21.1336L5.58704 14.5749C5.2834 14.2713 5.2834 13.7247 5.58704 13.3603L8.44129 10.5061C8.74494 10.2024 9.17004 10.2024 9.47368 10.5061C9.47368 10.5061 15.1822 16.336 16.0324 17.1862C17.0648 18.2186 18.0972 18.4615 19.1296 18.2186C19.3117 18.2186 19.3725 18.4008 19.251 18.5223Z" fill="url(#paint0_radial)"/>
<defs>
<radialGradient id="paint0_radial" cx="0" cy="0" r="1" gradientUnits="userSpaceOnUse" gradientTransform="translate(-0.893109 33.7358) rotate(-44.672) scale(43.4415 45.9303)">
<stop stop-color="#FEF3A2"/>
<stop offset="0.520149" stop-color="#26CAD3"/>
<stop offset="1" stop-color="#008FBE"/>
</radialGradient>
</defs>
</svg>
