<svg width="31" height="29" viewBox="0 0 31 29" fill="none" xmlns="http://www.w3.org/2000/svg">
<path d="M15.5249 20.4494L16.2761 18.8636L13.7721 5.8427C13.0209 2.17014 13.939 0.584268 16.7769 0.0834656H14.1059C13.3547 0.500801 11.6854 1.58587 12.6035 5.92616L15.5249 20.4494Z" fill="#8EC089"/>
<path d="M14.0225 23.6212L14.7737 22.0353L11.435 5.8427C10.7673 2.67095 11.1011 1.08507 12.1027 0.166933V0.0834656H10.2665C9.68219 1.252 9.51526 2.42054 10.183 5.59229L14.0225 23.6212Z" fill="#E85F24"/>
<path d="M12.5201 26.7095L13.2713 25.1236L9.09793 5.42536C8.34673 2.33708 8.51366 1.00161 8.84753 0H7.26166C7.26166 1.66934 7.42859 3.33868 7.92939 4.92456L12.5201 26.7095Z" fill="#1C4695"/>
<path d="M5.75925 0.0834656H3.92297V0.166933C4.75764 1.16854 5.00805 2.42054 5.67578 5.17496L10.6838 28.3788H11.8523L6.84432 5.09149C6.34352 3.42215 6.00965 1.75281 5.75925 0.0834656Z" fill="#245ABC"/>
<path d="M2.00321 0.0834656H0V0.166933C1.83628 0.918137 2.75441 2.25361 3.50562 5.59229L8.43018 28.4623H9.59872L4.59069 5.34189C3.67255 1.33547 2.75441 0.584268 2.00321 0.0834656Z" fill="#318EEE"/>
<path d="M27.6276 0.0834656C25.207 1.41894 23.7881 4.00642 20.8668 10.3499H20.9502C24.3724 3.92295 26.2921 1.41894 30.7159 0.0834656H27.6276Z" fill="#1C4695"/>
<path d="M20.6998 10.2665C23.6212 3.67255 24.2889 1.83627 25.4575 0.166933V0.0834656H23.2038V0.166933C23.4542 2.75441 22.5361 5.17496 20.6998 10.2665Z" fill="#E85F24"/>
<path d="M20.5329 10.0995C22.3692 4.25682 22.9534 1.58587 21.3676 0H19.1974V0.083467C21.7014 1.00161 22.2022 3.50562 20.5329 10.0995Z" fill="#8EC089"/>
</svg>
